<svg width="21" height="24" viewBox="0 0 21 24" fill="none" xmlns="http://www.w3.org/2000/svg">
<path d="M10.2358 0.199799C11.1282 0.199944 11.9332 0.731651 12.2856 1.55136C12.5942 2.27034 12.5005 3.08997 12.0571 3.71738C13.4257 4.12252 14.6354 4.94836 15.5122 6.08163C16.4523 7.2968 16.9543 8.79342 16.937 10.3297V12.2643L16.9497 12.7984C17.0762 15.464 18.1934 17.9935 20.0952 19.8844C20.2696 20.0573 20.323 20.3201 20.229 20.5475L20.228 20.5484C20.1333 20.7736 19.9136 20.9214 19.6665 20.9205V20.9215H13.2124C12.9173 22.3211 11.6829 23.3363 10.2378 23.3365C8.79255 23.3365 7.55847 22.3211 7.26318 20.9215H0.808105V20.9205C0.561084 20.9214 0.341303 20.7735 0.246582 20.5484L0.245605 20.5475C0.151623 20.3201 0.204976 20.0573 0.379395 19.8844C2.40791 17.8676 3.54451 15.1244 3.5376 12.2643V10.1588C3.53767 8.64621 4.04965 7.1787 4.99072 5.99472C5.86516 4.89249 7.06243 4.09566 8.41064 3.71347C7.96977 3.08662 7.87727 2.26877 8.18506 1.55136C8.53753 0.731538 9.34332 0.199799 10.2358 0.199799ZM8.51025 20.9215C8.76413 21.6461 9.45051 22.1449 10.2368 22.1451C11.0234 22.1451 11.7104 21.6463 11.9644 20.9215H8.51025ZM10.5015 4.6705C9.00104 4.59863 7.53679 5.14414 6.44971 6.18124C5.36209 7.21772 4.74756 8.65558 4.74951 10.1588V12.2633L4.73975 12.7965C4.63506 15.3149 3.72975 17.7346 2.15967 19.7086H18.314C16.6336 17.5958 15.7164 14.9717 15.7251 12.2633V10.3268C15.7496 8.89252 15.221 7.50469 14.2476 6.45078C13.2751 5.39791 11.9326 4.75981 10.5015 4.67148V4.6705ZM10.2378 1.42148C9.67498 1.42148 9.21839 1.87725 9.21826 2.44003C9.21826 2.85181 9.46695 3.22353 9.84814 3.38144C10.1809 3.51871 10.5576 3.46983 10.8423 3.26035L10.9585 3.16074C11.2494 2.86858 11.3362 2.43061 11.1792 2.05038C11.0213 1.66938 10.6494 1.42164 10.2378 1.42148Z" fill="#213F7D" stroke="#213F7D" stroke-width="0.4"/>
</svg>
