<svg width="16" height="16" viewBox="0 0 16 16" fill="none" xmlns="http://www.w3.org/2000/svg">
<g clip-path="url(#clip0_2_705)">
<path opacity="0.4" d="M4.76289 11.8763C4.27079 11.7742 3.7942 11.608 3.34529 11.3821C2.56301 11.498 1.76397 11.4051 1.02915 11.1128C0.608989 10.9444 0.239607 11.4464 0.525982 11.797C0.960104 12.3262 1.47963 12.7791 2.06308 13.1371C3.57369 14.0704 5.44709 14.2437 7.10015 13.6828C7.54342 13.0917 7.83338 12.4 7.94414 11.6695C6.92104 12.0205 5.8228 12.0918 4.76289 11.8763ZM4.33064 7.94419C3.97965 6.92108 3.90826 5.82279 4.12385 4.76286C4.22595 4.27079 4.39207 3.79422 4.61799 3.34532C4.50216 2.563 4.59505 1.76397 4.88727 1.0291C5.05573 0.609052 4.55354 0.239484 4.20308 0.5258C3.67384 0.959891 3.22094 1.47945 2.86312 2.06297C1.92978 3.57365 1.75644 5.447 2.31723 7.10007C2.90838 7.54336 3.6001 7.83336 4.33064 7.94419ZM11.6695 8.05588C12.0204 9.07899 12.0918 10.1773 11.8762 11.2372C11.7741 11.7293 11.608 12.2059 11.3821 12.6548C11.4979 13.4371 11.405 14.2361 11.1128 14.971C10.9444 15.391 11.4466 15.7606 11.797 15.4743C12.3262 15.0402 12.7791 14.5206 13.137 13.9371C14.0703 12.4264 14.2437 10.5531 13.6829 8.9C13.0917 8.45671 12.4 8.16671 11.6695 8.05588ZM15.4741 4.2031C15.04 3.67385 14.5205 3.22089 13.937 2.86296C12.4264 1.92967 10.553 1.75639 8.89994 2.31718C8.45666 2.9083 8.16669 3.60002 8.05595 4.33054C9.07905 3.97961 10.1773 3.90822 11.2372 4.12376C11.7293 4.22587 12.2059 4.39202 12.6548 4.61796C13.4371 4.50201 14.2361 4.59491 14.9709 4.88725C15.3911 5.0557 15.7605 4.55357 15.4741 4.2031Z" fill="#213F7D"/>
<path d="M15.8305 8.56571C15.3056 6.34366 13.4761 4.57078 11.2371 4.12369C10.1772 3.90816 9.07898 3.97955 8.05588 4.33048C8.16961 3.57377 8.47478 2.85866 8.94245 2.25299C9.41012 1.64732 10.0248 1.17118 10.7281 0.869728C11.1442 0.69175 11.0505 0.075416 10.6002 0.030068C9.91897 -0.0371637 9.23132 0.00993299 8.56564 0.169412C6.34374 0.694313 4.5708 2.52378 4.12379 4.76279C3.90819 5.82273 3.97958 6.92101 4.33057 7.94412C3.57385 7.83037 2.85874 7.52517 2.25307 7.05749C1.6474 6.58982 1.17125 5.97516 0.869783 5.27182C0.691806 4.85575 0.0754766 4.94944 0.0300682 5.39976C-0.0371723 6.08095 0.00994484 6.76859 0.169471 7.43424C0.694369 9.65628 2.52382 11.4292 4.76282 11.8762C5.82273 12.0918 6.92098 12.0204 7.94407 11.6695C7.83034 12.4262 7.52517 13.1413 7.0575 13.747C6.58983 14.3526 5.97518 14.8288 5.27185 15.1302C4.85571 15.3082 4.94946 15.9245 5.39978 15.9699C6.08098 16.0371 6.76863 15.99 7.43431 15.8305C9.65621 15.3056 11.4291 13.4762 11.8762 11.2372C12.0918 10.1772 12.0204 9.07893 11.6694 8.05582C12.4261 8.16958 13.1412 8.47477 13.7469 8.94245C14.3526 9.41013 14.8287 10.0248 15.1302 10.7281C15.3081 11.1442 15.9245 11.0505 15.9699 10.6002C16.0371 9.919 15.99 9.23136 15.8305 8.56571ZM7.99998 9.49997C7.7033 9.49997 7.41329 9.412 7.16662 9.24718C6.91994 9.08236 6.72768 8.84809 6.61415 8.574C6.50062 8.29992 6.47091 7.99832 6.52879 7.70734C6.58666 7.41637 6.72952 7.1491 6.9393 6.93932C7.14908 6.72954 7.41635 6.58667 7.70733 6.5288C7.9983 6.47092 8.2999 6.50062 8.57399 6.61415C8.84808 6.72768 9.08235 6.91994 9.24717 7.16662C9.41199 7.41329 9.49996 7.7033 9.49996 7.99997C9.49996 8.39779 9.34192 8.77932 9.06062 9.06062C8.77932 9.34192 8.3978 9.49996 7.99998 9.49997Z" fill="#213F7D"/>
</g>
<defs>
<clipPath id="clip0_2_705">
<rect width="16" height="16" fill="white"/>
</clipPath>
</defs>
</svg>
