<svg width="14" height="14" viewBox="0 0 14 14" fill="none" xmlns="http://www.w3.org/2000/svg">
<path d="M6.36816 6.46875C7.58194 6.53034 8.73405 7.03926 9.59766 7.90234C10.5181 8.82337 11.0354 10.0727 11.0371 11.375V13.125C11.0371 13.2673 10.9808 13.404 10.8799 13.5049C10.779 13.6058 10.6423 13.6621 10.5 13.6621H1.75C1.60769 13.6621 1.47101 13.6058 1.37012 13.5049C1.26924 13.404 1.21289 13.2673 1.21289 13.125V11.375L1.21875 11.1318C1.28035 9.91807 1.78927 8.76594 2.65234 7.90234C3.51591 7.03928 4.66801 6.53031 5.88184 6.46875L6.125 6.46289L6.36816 6.46875ZM8.04395 8.05176C6.85648 7.36581 5.39354 7.36581 4.20605 8.05176C3.01866 8.7371 2.28713 10.0042 2.28711 11.375V12.5879H9.96289L9.96191 11.375C9.96189 10.0043 9.23135 8.73717 8.04395 8.05176ZM11.4863 4.37891C11.6974 4.17455 12.0328 4.178 12.2402 4.38477L12.3086 4.46777C12.4451 4.6738 12.425 4.95392 12.2461 5.13867L11.6973 5.6875L12.2441 6.23438L12.3135 6.31543C12.3742 6.40322 12.4072 6.50795 12.4082 6.61621C12.4092 6.72415 12.3774 6.82928 12.3184 6.91797L12.251 7.00098C12.1494 7.10309 12.0101 7.15955 11.8662 7.1582C11.7225 7.15685 11.5854 7.09851 11.4854 6.99512L10.9375 6.44727L10.3887 6.99609C10.2039 7.17495 9.9238 7.19511 9.71777 7.05859L9.63477 6.99023C9.42801 6.78281 9.42454 6.44742 9.62891 6.23633L10.1777 5.6875L9.62891 5.13867C9.42455 4.92759 9.428 4.59219 9.63477 4.38477L9.71777 4.31641C9.89425 4.19951 10.1251 4.19739 10.3037 4.31152L10.3887 4.37891L10.9375 4.92773L11.4863 4.37891ZM6.125 0.337891C6.84772 0.337891 7.54083 0.624821 8.05176 1.13574C8.56268 1.64669 8.8496 2.33978 8.84961 3.0625C8.84961 3.78522 8.56268 4.47833 8.05176 4.98926C7.5408 5.50019 6.84771 5.78711 6.125 5.78711H6.08398L6.08105 5.78418C5.37443 5.77225 4.69969 5.48894 4.19922 4.98926L4.19824 4.98828C3.68823 4.47745 3.40096 3.78501 3.40039 3.0625C3.4004 2.33979 3.68732 1.64667 4.19824 1.13574C4.7092 0.624822 5.40228 0.337891 6.125 0.337891ZM6.125 1.41211C5.21393 1.41324 4.47572 2.15143 4.47461 3.0625C4.47461 3.72969 4.87707 4.33166 5.49316 4.58691C6.10984 4.84266 6.82021 4.70128 7.29199 4.22949C7.76376 3.75774 7.90516 3.04734 7.64941 2.43066C7.39414 1.81459 6.79216 1.41211 6.125 1.41211Z" fill="#545F7D" stroke="#545F7D" stroke-width="0.2"/>
</svg>
